<?xml version="1.0" encoding="utf-8"?>
<!-- Generator: Adobe Illustrator 23.0.1, SVG Export Plug-In . SVG Version: 6.00 Build 0)  -->
<svg version="1.1" xmlns="http://www.w3.org/2000/svg" xmlns:xlink="http://www.w3.org/1999/xlink" x="0px" y="0px"
	 viewBox="0 0 69.6 40.7" style="enable-background:new 0 0 69.6 40.7;" xml:space="preserve">
<style type="text/css">
	.st0{fill:#940300;}
	.st1{fill:#FFFFFF;}
</style>
<g id="Camada_1">
	<g>
		<g>
			<g>
				<path class="st0" d="M52,11.8h1.3c-21.4-26.5-37.7,0-37.7,0h7.5C37.2-5,52,11.8,52,11.8z"/>
				<path class="st0" d="M17,29h-1.3c21.4,26.5,37.7,0,37.7,0h-7.5C31.7,45.8,17,29,17,29z"/>
				<polygon class="st0" points="69.6,13.1 0,13.1 3.4,20.6 0,28.1 69.6,28.1 66.3,20.6 				"/>
			</g>
		</g>
		<g>
			<path class="st1" d="M22,24.7v-8.3h4.6v0.9h-3.5v2.8h2.9V21h-2.9v3.8H22z"/>
			<path class="st1" d="M27.2,24.7l3.3-8.3h1.2l3.2,8.3h-1.3l-0.9-2.3h-3.5l-0.9,2.3H27.2z M29.5,21.6h2.8L30.9,18L29.5,21.6z"/>
			<path class="st1" d="M36.1,24.7v-8.3h1.1v4.1l3.4-4.1h1.2l-3.3,4l3.8,4.3h-1.5l-3.6-4.2v4.2H36.1z"/>
			<path class="st1" d="M43.6,24.7v-8.3h4.6v0.9h-3.5V20h2.9v0.9h-2.9v3h3.7v0.9H43.6z"/>
		</g>
	</g>
</g>
<g id="Camada_2">
</g>
</svg>
