<?xml version="1.0" encoding="utf-8"?>
<!-- Generator: Adobe Illustrator 23.0.1, SVG Export Plug-In . SVG Version: 6.00 Build 0)  -->
<svg version="1.1" xmlns="http://www.w3.org/2000/svg" xmlns:xlink="http://www.w3.org/1999/xlink" x="0px" y="0px"
	 viewBox="0 0 69.6 40.7" style="enable-background:new 0 0 69.6 40.7;" xml:space="preserve">
<style type="text/css">
	.st0{fill:#D3810D;}
	.st1{fill:#FFFFFF;}
</style>
<g id="Camada_1">
	<g>
		<g>
			<g>
				<path class="st0" d="M52,11.8h1.3c-21.4-26.5-37.7,0-37.7,0h7.5C37.2-5,52,11.8,52,11.8z"/>
				<path class="st0" d="M17,29h-1.3c21.4,26.5,37.7,0,37.7,0h-7.5C31.7,45.8,17,29,17,29z"/>
				<polygon class="st0" points="69.6,13.1 0,13.1 3.4,20.6 0,28.1 69.6,28.1 66.3,20.6 				"/>
			</g>
		</g>
		<g>
			<path class="st1" d="M5.3,24.6v-8.5h1.2v8.5H5.3z"/>
			<path class="st1" d="M8.6,24.6v-8.5h1.7l2.4,6.6l2.4-6.6h1.5v8.5h-1.1v-6.9l-2.3,6.3H12l-2.3-6.4v6.9H8.6z"/>
			<path class="st1" d="M18.8,24.6v-8.5h2.3c0.7,0,1.2,0.1,1.5,0.2c0.4,0.1,0.7,0.3,0.9,0.6c0.3,0.4,0.5,0.9,0.5,1.5
				c0,0.9-0.3,1.6-0.9,2.1c-0.6,0.5-1.5,0.8-2.5,0.8H20v3.4H18.8z M20,20.3h0.5c0.7,0,1.3-0.2,1.7-0.5c0.4-0.3,0.6-0.8,0.6-1.4
				c0-0.5-0.2-0.9-0.5-1.1c-0.3-0.2-0.8-0.3-1.5-0.3H20V20.3z"/>
			<path class="st1" d="M25.3,24.6v-8.5h2.6c0.8,0,1.4,0.2,1.9,0.5c0.4,0.4,0.7,0.9,0.7,1.6c0,0.5-0.2,1-0.5,1.4
				c-0.3,0.4-0.7,0.7-1.3,1l2.8,4H30L27.6,21h-1.1v3.6H25.3z M26.5,20.1h0.4c0.7,0,1.3-0.2,1.7-0.5c0.4-0.3,0.6-0.7,0.6-1.3
				c0-0.9-0.6-1.3-1.9-1.3h-0.8V20.1z"/>
			<path class="st1" d="M32.7,24.6v-8.5h4.7V17h-3.5v2.7h3v0.9h-3v3.1h3.8v0.9H32.7z"/>
			<path class="st1" d="M45.5,24.2c-0.8,0.4-1.8,0.6-2.7,0.6c-1.3,0-2.3-0.4-3.1-1.2c-0.7-0.8-1.1-1.9-1.1-3.3
				c0-1.4,0.4-2.5,1.1-3.3c0.7-0.8,1.8-1.2,3.1-1.2c0.8,0,1.6,0.1,2.7,0.4v1.1c-1.2-0.4-2.1-0.6-2.7-0.6c-0.9,0-1.6,0.3-2.1,0.9
				s-0.8,1.5-0.8,2.6c0,1.1,0.3,1.9,0.8,2.6s1.3,0.9,2.2,0.9c0.8,0,1.7-0.2,2.6-0.7V24.2z"/>
			<path class="st1" d="M47.2,24.6v-8.5h1.2v8.5H47.2z"/>
			<path class="st1" d="M50.1,24.5v-1.2c1,0.4,1.7,0.7,2.4,0.7c0.5,0,0.9-0.1,1.1-0.4c0.3-0.3,0.4-0.6,0.4-1c0-0.3-0.1-0.6-0.3-0.8
				s-0.5-0.5-1-0.8l-0.6-0.3c-0.7-0.4-1.2-0.8-1.5-1.2c-0.3-0.4-0.4-0.8-0.4-1.3c0-0.7,0.2-1.2,0.7-1.6c0.5-0.4,1.1-0.6,1.8-0.6
				c0.7,0,1.3,0.1,2.1,0.3v1.1c-0.9-0.4-1.6-0.5-2-0.5c-0.4,0-0.8,0.1-1,0.3c-0.3,0.2-0.4,0.5-0.4,0.8c0,0.3,0.1,0.5,0.3,0.8
				c0.2,0.2,0.6,0.5,1.1,0.8l0.6,0.3c0.7,0.4,1.2,0.8,1.5,1.2c0.3,0.4,0.4,0.8,0.4,1.3c0,0.7-0.3,1.3-0.8,1.8
				c-0.5,0.4-1.3,0.7-2.2,0.7C51.7,24.8,51,24.7,50.1,24.5z"/>
			<path class="st1" d="M60.4,24.8c-1.2,0-2.2-0.4-2.9-1.2c-0.7-0.8-1.1-1.9-1.1-3.2s0.4-2.4,1.1-3.2c0.7-0.8,1.7-1.2,2.9-1.2
				s2.2,0.4,2.9,1.2c0.7,0.8,1.1,1.9,1.1,3.2s-0.4,2.4-1.1,3.2C62.6,24.4,61.6,24.8,60.4,24.8z M60.4,23.9c0.8,0,1.5-0.3,2-0.9
				c0.5-0.6,0.7-1.5,0.7-2.6c0-1.1-0.2-2-0.7-2.6c-0.5-0.6-1.1-0.9-2-0.9c-0.8,0-1.5,0.3-2,0.9c-0.5,0.6-0.7,1.5-0.7,2.6
				c0,1.1,0.2,2,0.7,2.6C58.9,23.6,59.6,23.9,60.4,23.9z"/>
		</g>
	</g>
</g>
<g id="Camada_2">
</g>
</svg>
