<?xml version="1.0" encoding="utf-8"?>
<!-- Generator: Adobe Illustrator 24.0.1, SVG Export Plug-In . SVG Version: 6.00 Build 0)  -->
<svg version="1.1" id="Layer_1" xmlns="http://www.w3.org/2000/svg" xmlns:xlink="http://www.w3.org/1999/xlink" x="0px" y="0px"
	 viewBox="0 0 221.31 126.39" style="enable-background:new 0 0 221.31 126.39;" xml:space="preserve">
<style type="text/css">
	.st0{fill:#EFAB00;}
	.st1{fill:#D88500;}
	.st2{fill:#FFFFFF;}
	.st3{fill:none;}
	.st4{display:none;fill:#FFFFFF;}
	.st5{font-family:'SourceSansPro-Bold';}
	.st6{font-size:31px;}
</style>
<path class="st0" d="M65.8,71.4c-0.26-2.08-0.41-4.18-0.41-6.29c-0.02-8.98,2.44-17.84,7.02-25.53c4.54-7.71,11.24-14.13,19-18.43
	c3.88-2.15,8.04-3.78,12.3-4.82c1.07-0.23,2.14-0.5,3.22-0.66c0.54-0.09,1.08-0.19,1.61-0.27c0.54-0.06,1.08-0.13,1.62-0.19
	l0.41-0.05l0.2-0.03l0.1-0.01c0.06-0.01-0.18-0.01-0.02-0.01l0.89-0.05c0.6-0.04,1.19-0.07,1.78-0.1c1.05-0.01,2.03-0.07,3.1-0.03
	c4.27,0.11,8.48,0.71,12.44,1.83c3.94,1.16,7.68,2.7,11.04,4.64c3.37,1.93,6.4,4.17,9.02,6.61c2.63,2.43,4.91,5,6.78,7.63
	c1.88,2.61,3.41,5.24,4.59,7.78c1.18,2.54,2.13,4.95,2.75,7.2c1.34,4.47,1.79,8.15,1.95,10.65c0.13,1.25,0.11,2.21,0.14,2.86
	c0.01,0.62,0.03,0.95,0.03,0.97c0,0.03-0.01,0.36-0.03,0.99v0.05c0.56-0.02,1.13-0.04,1.69-0.07c0.01-0.62,0.02-0.94,0.02-0.94
	v-0.02c0,0-0.01-0.34-0.02-1.01c-0.02-0.67,0-1.66-0.11-2.95c-0.16-2.58-0.54-6.37-1.75-11.06c-1.22-4.67-3.21-10.28-6.74-16.11
	c-1.76-2.91-3.85-5.9-6.39-8.8c-2.55-2.88-5.47-5.75-8.88-8.34c-6.79-5.18-15.43-9.53-25.44-11.45c-1.24-0.26-2.62-0.42-3.92-0.61
	c-0.59-0.07-1.18-0.13-1.77-0.2l-0.9-0.1l-1.11-0.06c-0.66-0.03-1.32-0.07-1.98-0.1c-0.66-0.02-1.33-0.01-2-0.01
	c-1.34-0.03-2.69,0.07-4.05,0.14c-2.71,0.21-5.47,0.55-8.21,1.15c-1.38,0.25-2.74,0.64-4.13,1c-0.68,0.19-1.36,0.42-2.05,0.64
	c-0.69,0.21-1.36,0.45-2.04,0.71c-2.72,0.97-5.38,2.2-7.98,3.59c-2.6,1.4-5.1,3.05-7.53,4.83c-4.8,3.64-9.18,8.04-12.82,13.1
	c-1.84,2.52-3.42,5.23-4.88,8.03c-1.42,2.82-2.61,5.76-3.6,8.78c-0.99,3.02-1.68,6.14-2.21,9.29l-0.33,2.38
	c-0.11,0.77-0.15,1.68-0.22,2.52l-0.09,1.28c-0.02,0.23-0.02,0.39-0.03,0.56l-0.02,0.51l-0.06,2.28c0.03,2.31,0.15,4.63,0.4,6.93
	C52.74,71.88,59.27,71.67,65.8,71.4"/>
<path class="st0" d="M153.18,52.98c0.27,2.08,0.42,4.18,0.42,6.29c0.02,8.98-2.45,17.84-7.02,25.53
	c-4.54,7.71-11.24,14.13-19.01,18.43c-3.88,2.15-8.03,3.78-12.29,4.82c-1.07,0.23-2.14,0.5-3.22,0.65c-0.54,0.09-1.08,0.2-1.61,0.27
	c-0.54,0.06-1.08,0.13-1.62,0.19l-0.41,0.05l-0.2,0.03l-0.1,0.01c-0.06,0.01,0.18,0.01,0.02,0.01l-0.89,0.05
	c-0.6,0.03-1.19,0.07-1.78,0.1c-1.05,0.01-2.02,0.07-3.1,0.03c-4.27-0.11-8.48-0.7-12.44-1.83c-3.94-1.15-7.68-2.7-11.04-4.64
	c-3.36-1.93-6.4-4.17-9.02-6.61c-2.63-2.43-4.91-5.01-6.78-7.63c-1.88-2.62-3.41-5.24-4.59-7.78c-1.18-2.54-2.13-4.96-2.75-7.2
	c-1.34-4.47-1.79-8.15-1.95-10.64c-0.12-1.25-0.1-2.21-0.13-2.86c-0.02-0.62-0.03-0.94-0.03-0.97c0-0.03,0.01-0.36,0.03-0.99
	c0-0.01,0-0.04,0-0.05c-0.57,0.03-1.13,0.05-1.7,0.07c-0.01,0.62-0.02,0.94-0.02,0.94v0.02c0,0,0.01,0.35,0.02,1.01
	c0.03,0.67,0,1.66,0.12,2.95c0.16,2.57,0.54,6.37,1.76,11.05c1.21,4.67,3.21,10.28,6.73,16.11c1.76,2.91,3.85,5.9,6.39,8.79
	c2.55,2.88,5.47,5.75,8.88,8.34c6.79,5.17,15.43,9.53,25.45,11.45c1.24,0.26,2.62,0.42,3.92,0.61c0.59,0.06,1.18,0.13,1.78,0.19
	l0.89,0.1l1.11,0.06c0.65,0.03,1.32,0.07,1.98,0.1c0.66,0.03,1.33,0.01,2,0.01c1.34,0.03,2.69-0.07,4.04-0.14
	c2.71-0.22,5.47-0.54,8.22-1.15c1.39-0.26,2.74-0.64,4.12-1c0.68-0.2,1.36-0.42,2.05-0.64c0.69-0.21,1.36-0.45,2.03-0.71
	c2.72-0.97,5.38-2.19,7.99-3.59c2.61-1.39,5.09-3.05,7.53-4.83c4.8-3.64,9.18-8.04,12.82-13.1c1.84-2.52,3.42-5.23,4.87-8.03
	c1.42-2.81,2.62-5.76,3.6-8.78c0.99-3.02,1.68-6.14,2.21-9.29l0.32-2.37c0.12-0.77,0.16-1.68,0.23-2.52l0.09-1.28
	c0.02-0.23,0.03-0.4,0.03-0.56l0.01-0.51l0.07-2.28c-0.04-2.32-0.16-4.63-0.41-6.93C166.24,52.49,159.71,52.71,153.18,52.98"/>
<polygon class="st1" points="216.22,87.99 2.77,87.99 12.58,64.68 2.77,41.38 216.22,41.38 206.4,64.68 "/>
<path class="st2" d="M218.99,89.83H0l10.59-25.15L0,39.54h218.99L208.4,64.68L218.99,89.83z M5.55,86.15h207.9l-9.04-21.47
	l9.04-21.47H5.55l9.03,21.47L5.55,86.15z"/>
<g>
	<path class="st2" d="M36.89,75.33V55.12h4.56v20.21H36.89z"/>
	<path class="st2" d="M46.06,75.33V55.12h4.99l3.25,8.99c0.21,0.6,0.4,1.21,0.59,1.84s0.38,1.26,0.59,1.88h0.12
		c0.21-0.62,0.4-1.25,0.57-1.88s0.37-1.25,0.57-1.84l3.19-8.99h4.96v20.21h-4.15v-7.41c0-0.5,0.02-1.04,0.06-1.64
		c0.04-0.6,0.09-1.2,0.15-1.81c0.06-0.61,0.12-1.21,0.19-1.8s0.12-1.13,0.19-1.63h-0.12l-1.64,4.81l-2.88,7.72h-2.51l-2.88-7.72
		l-1.61-4.81h-0.12c0.06,0.5,0.12,1.04,0.19,1.63s0.12,1.19,0.19,1.8c0.06,0.61,0.11,1.21,0.15,1.81c0.04,0.6,0.06,1.15,0.06,1.64
		v7.41H46.06z"/>
	<path class="st2" d="M69.53,75.33V55.12h6.94c1.12,0,2.16,0.11,3.13,0.33c0.97,0.22,1.82,0.58,2.54,1.09
		c0.72,0.51,1.3,1.18,1.72,2.01c0.42,0.84,0.64,1.87,0.64,3.08c0,1.18-0.21,2.2-0.64,3.07c-0.42,0.87-1,1.58-1.72,2.14
		c-0.72,0.56-1.56,0.97-2.51,1.24c-0.95,0.27-1.96,0.4-3.04,0.4h-2.51v6.85H69.53z M74.09,64.85h2.23c2.48,0,3.72-1.07,3.72-3.22
		c0-1.05-0.33-1.8-0.99-2.23c-0.66-0.43-1.61-0.65-2.85-0.65h-2.11V64.85z"/>
	<path class="st2" d="M87.85,75.33V55.12h7.28c1.07,0,2.08,0.1,3.02,0.31s1.76,0.55,2.46,1.04c0.7,0.49,1.26,1.13,1.67,1.94
		c0.41,0.81,0.62,1.81,0.62,3.01c0,1.49-0.33,2.71-0.98,3.67s-1.52,1.68-2.62,2.15l4.59,8.09h-5.11l-3.88-7.29h-2.51v7.29H87.85z
		 M92.41,64.42h2.36c1.2,0,2.11-0.25,2.74-0.76s0.95-1.26,0.95-2.25s-0.31-1.68-0.95-2.08c-0.63-0.39-1.54-0.59-2.74-0.59h-2.36
		V64.42z"/>
	<path class="st2" d="M106.7,75.33V55.12h12.65v3.84h-8.09v4.06h6.88v3.81h-6.88v4.65h8.4v3.84H106.7z"/>
	<path class="st2" d="M131.96,75.7c-1.28,0-2.49-0.22-3.63-0.67c-1.14-0.44-2.13-1.1-2.99-1.97c-0.86-0.87-1.53-1.95-2.03-3.24
		c-0.5-1.29-0.74-2.78-0.74-4.48c0-1.67,0.26-3.17,0.78-4.48c0.52-1.31,1.21-2.42,2.08-3.33c0.87-0.91,1.88-1.6,3.04-2.08
		c1.16-0.48,2.38-0.71,3.66-0.71c1.3,0,2.47,0.26,3.5,0.79c1.03,0.53,1.89,1.14,2.57,1.84l-2.42,2.91
		c-0.52-0.48-1.06-0.86-1.63-1.16c-0.57-0.3-1.21-0.45-1.94-0.45c-0.68,0-1.33,0.15-1.94,0.45c-0.61,0.3-1.14,0.73-1.58,1.29
		s-0.8,1.24-1.05,2.05c-0.26,0.81-0.39,1.72-0.39,2.73c0,2.09,0.44,3.7,1.33,4.85c0.89,1.15,2.08,1.72,3.56,1.72
		c0.83,0,1.57-0.18,2.22-0.54c0.65-0.36,1.22-0.81,1.72-1.35l2.42,2.85C136.81,74.71,134.63,75.7,131.96,75.7z"/>
	<path class="st2" d="M141.42,75.33V55.12h4.56v20.21H141.42z"/>
	<path class="st2" d="M156.76,75.7c-1.32,0-2.64-0.24-3.95-0.73s-2.49-1.21-3.52-2.19l2.6-3.13c0.72,0.62,1.52,1.13,2.4,1.52
		c0.88,0.39,1.74,0.59,2.59,0.59c0.95,0,1.66-0.18,2.12-0.53s0.7-0.83,0.7-1.43c0-0.31-0.07-0.58-0.2-0.81
		c-0.13-0.23-0.33-0.43-0.59-0.6c-0.26-0.18-0.57-0.34-0.93-0.5c-0.36-0.16-0.76-0.33-1.19-0.51l-2.63-1.12
		c-0.52-0.21-1.02-0.48-1.5-0.81s-0.92-0.72-1.3-1.16c-0.38-0.44-0.69-0.96-0.91-1.55c-0.23-0.59-0.34-1.26-0.34-2
		c0-0.83,0.18-1.61,0.53-2.34c0.35-0.73,0.85-1.37,1.49-1.92c0.64-0.55,1.4-0.98,2.28-1.29c0.88-0.31,1.84-0.46,2.9-0.46
		c1.18,0,2.34,0.23,3.49,0.68c1.15,0.45,2.15,1.12,3.02,1.98l-2.33,2.88c-0.66-0.52-1.32-0.91-1.98-1.19
		c-0.66-0.28-1.4-0.42-2.2-0.42c-0.79,0-1.41,0.16-1.88,0.48c-0.46,0.32-0.7,0.77-0.7,1.35c0,0.31,0.08,0.57,0.23,0.79
		c0.16,0.22,0.37,0.41,0.65,0.59c0.28,0.18,0.6,0.34,0.98,0.5c0.37,0.15,0.77,0.33,1.21,0.51l2.6,1.05c1.24,0.5,2.22,1.18,2.93,2.05
		s1.07,2.02,1.07,3.44c0,0.85-0.17,1.65-0.51,2.4c-0.34,0.75-0.84,1.42-1.49,1.98s-1.45,1.02-2.4,1.36
		C159.03,75.53,157.96,75.7,156.76,75.7z"/>
	<path class="st2" d="M175.89,75.7c-1.36,0-2.61-0.24-3.74-0.73s-2.09-1.18-2.9-2.09c-0.81-0.91-1.43-2.01-1.88-3.32
		c-0.45-1.3-0.67-2.78-0.67-4.43c0-1.65,0.22-3.13,0.67-4.42c0.44-1.29,1.07-2.38,1.88-3.25c0.81-0.88,1.77-1.55,2.9-2.02
		c1.13-0.46,2.37-0.7,3.74-0.7c1.36,0,2.61,0.23,3.74,0.7c1.13,0.47,2.09,1.14,2.9,2.03c0.81,0.89,1.43,1.98,1.88,3.27
		c0.44,1.29,0.67,2.75,0.67,4.39c0,1.65-0.22,3.13-0.67,4.43c-0.44,1.3-1.07,2.41-1.88,3.32c-0.81,0.91-1.77,1.61-2.9,2.09
		C178.5,75.46,177.25,75.7,175.89,75.7z M175.89,71.76c1.38,0,2.48-0.59,3.29-1.78c0.81-1.19,1.21-2.81,1.21-4.85
		c0-2.02-0.4-3.61-1.21-4.74c-0.81-1.14-1.9-1.71-3.29-1.71s-2.48,0.57-3.29,1.71c-0.81,1.14-1.21,2.72-1.21,4.74
		c0,2.05,0.4,3.66,1.21,4.85C173.41,71.17,174.5,71.76,175.89,71.76z"/>
</g>
<rect x="22.09" y="53.6" class="st3" width="176.81" height="26.86"/>
<text transform="matrix(1 0 0 1 34.4835 75.3277)" class="st4 st5 st6">IMPRECISO</text>
</svg>
