<?xml version="1.0" encoding="utf-8"?>
<!-- Generator: Adobe Illustrator 23.0.1, SVG Export Plug-In . SVG Version: 6.00 Build 0)  -->
<svg version="1.1" id="Camada_1" xmlns="http://www.w3.org/2000/svg" xmlns:xlink="http://www.w3.org/1999/xlink" x="0px" y="0px"
	 viewBox="0 0 37.16 37.16" style="enable-background:new 0 0 37.16 37.16;" xml:space="preserve">
<style type="text/css">
	.st0{filter:url(#Adobe_OpacityMaskFilter);}
	.st1{mask:url(#SVGID_1_);}
	.st2{fill:#56646E;}
</style>
<defs>
	<filter id="Adobe_OpacityMaskFilter" filterUnits="userSpaceOnUse">
		<feColorMatrix  type="matrix" values="1 0 0 0 0  0 1 0 0 0  0 0 1 0 0  0 0 0 1 0"/>
	</filter>
</defs>
<mask maskUnits="userSpaceOnUse" id="SVGID_1_">
	<g class="st0">
		<rect x="-893.09" y="-722.99" width="375" height="812"/>
	</g>
</mask>
<g class="st1">
</g>
<path class="st2" d="M18.58,0.1C8.37,0.1,0.1,8.37,0.1,18.58s8.27,18.48,18.48,18.48c10.21,0,18.48-8.27,18.48-18.48
	C37.06,8.37,28.78,0.1,18.58,0.1z M18.58,35.62c-9.45,0-17.12-7.66-17.12-17.12S9.12,1.38,18.58,1.38c9.45,0,17.12,7.67,17.12,17.12
	S28.03,35.62,18.58,35.62z"/>
<path class="st2" d="M18.58,2.93c-8.64,0-15.65,7.01-15.65,15.65c0,4.71,2.09,8.92,5.38,11.79v-2.84c2,0,2.37-0.26,2.79-0.44
	c0.42-0.18,1.16-1.06,2.69-1.06c1.53,0,1.47,0.82,3,1.32c1.53,0.49,2.55,0.23,3.48,0c0.93-0.23,2.01-1.32,3.17-1.32
	c1.16,0,1.48,0.36,2.31,0.96c0.82,0.61,1.43,0.54,1.43,0.54h1.69v2.81c3.27-2.87,5.35-7.07,5.35-11.76
	C34.23,9.94,27.22,2.93,18.58,2.93z M23.75,10.48c0,0,1.74,3.81,1.74,4.81s-0.58,2.06-1.74,2.06c-1.16,0-1.76-0.76-1.76-2.05
	C21.99,14.01,23.75,10.48,23.75,10.48z M18.57,10.48c0,0,1.74,3.81,1.74,4.81s-0.58,2.06-1.74,2.06c-1.16,0-1.76-0.76-1.76-2.05
	C16.81,14.01,18.57,10.48,18.57,10.48z M13.41,10.48c0,0,1.74,3.81,1.74,4.81s-0.58,2.06-1.74,2.06s-1.76-0.76-1.76-2.05
	C11.65,14.01,13.41,10.48,13.41,10.48z M28.31,26.69c-1.63,0-2.01-0.52-2.01-0.52c-1.37-1-2.08-1.06-2.69-1.06
	c-0.61,0-1.44,0.1-2.03,0.42c-0.6,0.32-1.57,1.16-3.15,1.16c-1.58,0-2.61-1.07-2.61-1.07s-0.74-0.58-2.06-0.58
	c-1.32,0-1.92,0.5-1.92,0.5c-0.92,0.95-1.97,1.15-3.03,1.15c-1.06,0-2.14-0.71-2.14-0.71s0-2.63,0-3.9c0-1.27,1.21-1.37,1.21-1.37
	h4.63v-2.5h1.85v2.5h3.33v-2.5h1.82v2.5h3.29v-2.5h1.93v2.5c0,0,3.6,0,4.57,0c0.97,0,1.23,1.19,1.23,1.19v4.08
	C30.51,25.98,29.94,26.69,28.31,26.69z"/>
</svg>
