<?xml version="1.0" encoding="utf-8"?>
<!-- Generator: Adobe Illustrator 23.0.1, SVG Export Plug-In . SVG Version: 6.00 Build 0)  -->
<svg version="1.1" id="Camada_1" xmlns="http://www.w3.org/2000/svg" xmlns:xlink="http://www.w3.org/1999/xlink" x="0px" y="0px"
	 viewBox="0 0 28.85 36.28" style="enable-background:new 0 0 28.85 36.28;" xml:space="preserve">
<style type="text/css">
	.st0{filter:url(#Adobe_OpacityMaskFilter);}
	.st1{mask:url(#SVGID_1_);}
	.st2{fill:#56646E;}
</style>
<defs>
	<filter id="Adobe_OpacityMaskFilter" filterUnits="userSpaceOnUse">
		<feColorMatrix  type="matrix" values="1 0 0 0 0  0 1 0 0 0  0 0 1 0 0  0 0 0 1 0"/>
	</filter>
</defs>
<mask maskUnits="userSpaceOnUse" id="SVGID_1_">
	<g class="st0">
		<rect x="-896.7" y="-722.99" width="375" height="812"/>
	</g>
</mask>
<g class="st1">
</g>
<g>
	<path class="st2" d="M14.54-0.03c-7.82,0-14.21,5.68-14.21,13.09c0,6.4,10.42,18.29,13.31,22.85c0.15,0.24,0.43,0.39,0.72,0.39
		c0.3,0,0.57-0.15,0.72-0.39c2.89-4.55,13.43-15.94,13.43-22.33C28.52,6.17,22.36-0.03,14.54-0.03z M14.51,24.35
		c-6.28,0-11.4-4.73-11.4-10.87c0-6.13,5.11-11.39,11.4-11.39c6.29,0,11.4,4.99,11.4,11.13S20.79,24.35,14.51,24.35z"/>
	<path class="st2" d="M17.53,11.32c0.38-0.78,1.81-2.12,0.84-3c-0.26-0.23-0.19-1.77-0.34-2.24c-0.19-0.57-0.42-1.19-0.86-1.62
		c-1.86-1.82-5.56-0.92-6.1,1.69c-0.19,0.91,0.11,1.89-0.14,2.78c-0.22,0.78-0.28,1.45,0.16,2.17c0.37,0.61,0.49,1.2,0.76,1.87
		c-0.08-0.19-0.16-0.4,0.01,0.01c0.17,0.43,0.21,0.91,0.16,1.37c-0.04,0.35,0.64,0.53,0.94,0.66c0.92,0.38,1.73,0.34,2.64-0.04
		c0.38-0.16,1.28-0.95,1.64-0.95C17.17,13.02,17.07,12.26,17.53,11.32z"/>
	<path class="st2" d="M13.77,16.38c-0.26,0.44-0.48,0.59-0.29,1.06c0.12,0.29,0.31,0.58,0.28,0.89c-0.09,1.04-0.18,2.07-0.28,3.11
		c-0.06,0.62-0.11,1.24-0.17,1.86c0.34,0.03,0.69,0.05,1.04,0.05c0.22,0,0.44-0.01,0.65-0.02c-0.08-1.57-0.16-3.13-0.24-4.7
		c-0.01-0.15-0.09-0.48-0.03-0.62c0.08-0.17,0.94-0.66,0.84-0.81C15.22,16.63,14.41,15.28,13.77,16.38z"/>
	<path class="st2" d="M17.82,14.92c-0.28,0.8-0.92,1.85-0.81,2.68c0.15,1.09,0.28,2.18,0.43,3.27c0.08,0.66,0.17,1.32,0.25,1.98
		c2.5-0.77,4.62-2.39,6.05-4.51C21.7,17.38,19.54,16.37,17.82,14.92z"/>
	<path class="st2" d="M6.71,17.65c-0.51,0.28-1.09,0.55-1.59,0.9c1.46,2.08,3.61,3.65,6.12,4.37c0.22-1.62,0.42-3.25,0.58-4.88
		c0.1-1.03-0.09-1.74-0.36-2.74C10.09,16.29,8.21,16.84,6.71,17.65z"/>
</g>
</svg>
