<?xml version="1.0" encoding="utf-8"?>
<!-- Generator: Adobe Illustrator 23.0.1, SVG Export Plug-In . SVG Version: 6.00 Build 0)  -->
<svg version="1.1" id="Camada_1" xmlns="http://www.w3.org/2000/svg" xmlns:xlink="http://www.w3.org/1999/xlink" x="0px" y="0px"
	 viewBox="0 0 28.85 36.28" style="enable-background:new 0 0 28.85 36.28;" xml:space="preserve">
<style type="text/css">
	.st0{filter:url(#Adobe_OpacityMaskFilter);}
	.st1{mask:url(#SVGID_1_);}
	.st2{fill:#56646E;}
</style>
<defs>
	<filter id="Adobe_OpacityMaskFilter" filterUnits="userSpaceOnUse">
		<feColorMatrix  type="matrix" values="1 0 0 0 0  0 1 0 0 0  0 0 1 0 0  0 0 0 1 0"/>
	</filter>
</defs>
<mask maskUnits="userSpaceOnUse" id="SVGID_1_">
	<g class="st0">
		<rect x="-896.7" y="-722.99" width="375" height="812"/>
	</g>
</mask>
<g class="st1">
</g>
<g>
	<path class="st2" d="M22.43,10.27c-1.72,0-3.44-0.01-5.16-0.01c0.72-0.03,1.45-0.06,2.18-0.06c0.4,0,0.38-0.31,0.36-0.72
		c0-0.07,0-0.07-0.05-0.2c-0.15-0.49-0.4-0.67-0.92-0.68c-1.06-0.01-2.11,0.03-3.18-0.02c-0.02-0.22,0.05-0.44-0.05-0.65
		c-0.17-0.52-0.51-0.86-1.06-0.89c-0.7-0.03-1.42-0.06-2.12,0c-0.68,0.06-0.98,0.41-1.05,1.01c-0.1,0.17-0.03,0.36-0.05,0.54
		C10.3,8.58,9.26,8.59,8.2,8.59c-0.71,0-0.56,0.22-0.56,0.92c0,2.1-0.04,6.71-0.02,6.67c0.81-1.64,1.56-3.25,2.39-4.88
		c0.25-0.48,0.56-0.67,1-0.74c-0.24,0.17-0.43,0.4-0.57,0.7c-0.3,0.66-0.66,1.38-0.97,2.04c-0.51,1.11-1.08,2.23-1.62,3.32
		c-0.12,0.24-0.29,0.48-0.33,0.75c-0.07,0.36,0.09,0.58,0.45,0.58c3.58,0,7.16,0,10.75,0.01c0.7,0,1.18-0.3,1.47-0.93
		c0.23-0.5,0.47-0.99,0.72-1.48c0.68-1.36,1.23-2.79,1.91-4.16C23.09,10.81,23.05,10.27,22.43,10.27z M14.87,8.52
		c-0.04,0.12-0.14,0.07-0.21,0.07c-0.39,0.01-0.78,0-1.17,0c-0.38,0-0.76-0.01-1.14,0.01c-0.16,0.01-0.21-0.05-0.21-0.21
		c0-0.5,0.11-0.63,0.6-0.63c0.54,0,1.07-0.01,1.6,0C14.8,7.77,15.02,8.1,14.87,8.52z"/>
	<path class="st2" d="M14.59,0C6.78,0,0.4,5.68,0.4,13.08c0,6.39,10.41,18.26,13.29,22.82c0.15,0.24,0.43,0.39,0.72,0.39
		c0.3,0,0.57-0.15,0.72-0.39c2.88-4.55,13.41-15.92,13.41-22.3C28.55,6.19,22.39,0,14.59,0z M14.55,24.34
		c-6.27,0-11.38-4.73-11.38-10.85c0-6.12,5.1-11.37,11.38-11.37c6.28,0,11.38,4.98,11.38,11.11S20.83,24.34,14.55,24.34z"/>
</g>
</svg>
