<?xml version="1.0" encoding="utf-8"?>
<!-- Generator: Adobe Illustrator 23.0.1, SVG Export Plug-In . SVG Version: 6.00 Build 0)  -->
<svg version="1.1" xmlns="http://www.w3.org/2000/svg" xmlns:xlink="http://www.w3.org/1999/xlink" x="0px" y="0px"
	 viewBox="0 0 69.6 40.7" style="enable-background:new 0 0 69.6 40.7;" xml:space="preserve">
<style type="text/css">
	.st0{fill:#1F820B;}
	.st1{fill:#FFFFFF;}
</style>
<g id="Camada_1">
	<g>
		<g>
			<path class="st0" d="M51.9,11.8h1.3c-21.4-26.5-37.7,0-37.7,0H23C37.1-5,51.9,11.8,51.9,11.8z"/>
			<path class="st0" d="M16.9,29h-1.3c21.4,26.5,37.7,0,37.7,0h-7.5C31.6,45.8,16.9,29,16.9,29z"/>
			<polygon class="st0" points="69.6,12.8 0,12.8 3.4,20.4 0,27.9 69.6,27.9 66.3,20.4 			"/>
		</g>
		<g>
			<path class="st1" d="M22.3,24.3v-7.9h4.1v0.8h-3v2.6h2.5v0.8h-2.5v3.6H22.3z"/>
			<path class="st1" d="M26.8,24.3l2.9-7.9h1l2.8,7.9h-1.1l-0.8-2.2h-3.1l-0.8,2.2H26.8z M28.9,21.3h2.5l-1.2-3.4L28.9,21.3z"/>
			<path class="st1" d="M36.3,24.3v-7h-2.6v-0.8H40v0.8h-2.6v7H36.3z"/>
			<path class="st1" d="M44,24.5c-1,0-1.9-0.4-2.5-1.1c-0.6-0.7-0.9-1.8-0.9-3s0.3-2.3,0.9-3c0.6-0.7,1.4-1.1,2.5-1.1
				c1,0,1.9,0.4,2.5,1.1c0.6,0.7,0.9,1.8,0.9,3s-0.3,2.3-0.9,3C45.8,24.1,45,24.5,44,24.5z M44,23.6c0.7,0,1.3-0.3,1.7-0.9
				c0.4-0.6,0.6-1.4,0.6-2.4c0-1-0.2-1.8-0.6-2.4c-0.4-0.6-1-0.9-1.7-0.9c-0.7,0-1.3,0.3-1.7,0.9c-0.4,0.6-0.6,1.4-0.6,2.4
				c0,1,0.2,1.8,0.6,2.4C42.7,23.4,43.2,23.6,44,23.6z"/>
		</g>
	</g>
</g>
<g id="Camada_2">
</g>
</svg>
