<?xml version="1.0" encoding="utf-8"?>
<!-- Generator: Adobe Illustrator 23.0.1, SVG Export Plug-In . SVG Version: 6.00 Build 0)  -->
<svg version="1.1" id="Camada_1" xmlns="http://www.w3.org/2000/svg" xmlns:xlink="http://www.w3.org/1999/xlink" x="0px" y="0px"
	 viewBox="0 0 37.16 37.16" style="enable-background:new 0 0 37.16 37.16;" xml:space="preserve">
<style type="text/css">
	.st0{filter:url(#Adobe_OpacityMaskFilter);}
	.st1{mask:url(#SVGID_1_);}
	.st2{fill:#56646E;}
</style>
<defs>
	<filter id="Adobe_OpacityMaskFilter" filterUnits="userSpaceOnUse">
		<feColorMatrix  type="matrix" values="1 0 0 0 0  0 1 0 0 0  0 0 1 0 0  0 0 0 1 0"/>
	</filter>
</defs>
<mask maskUnits="userSpaceOnUse" id="SVGID_1_">
	<g class="st0">
		<rect x="-893.09" y="-722.99" width="375" height="812"/>
	</g>
</mask>
<g class="st1">
</g>
<path class="st2" d="M18.58,0.09C8.37,0.09,0.09,8.37,0.09,18.58s8.28,18.49,18.49,18.49s18.49-8.28,18.49-18.49
	C37.07,8.37,28.79,0.09,18.58,0.09z M18.58,35.16c-9.16,0-16.58-7.42-16.58-16.58C1.99,9.42,9.42,2,18.58,2
	c9.16,0,16.58,7.43,16.58,16.58C35.16,27.74,27.74,35.16,18.58,35.16z"/>
<path class="st2" d="M7.53,28.74c0.02-0.25,1.98-1.83,1.98-1.83c3.05-3.16,6-2.22,6-2.22C16,19.08,20.19,14,20.19,14
	c-1.98,0.65-5.22,4.35-5.22,4.35c-0.18,0.19-0.21-0.09-0.21-0.09c0.65-5.07,5.13-5.76,5.13-5.76c-1.4-0.87-6.65-0.82-6.85-0.82
	c-0.2,0-0.15-0.15-0.15-0.15c4.05-2.73,7.52-0.22,7.52-0.22c-0.29-0.45-0.2-1.15-0.11-1.47c0.09-0.33,0.33-0.18,0.33-0.18l0.96,2.35
	c0,0,1.58-0.25,1.93-0.31c0.35-0.05,0.58-0.22,0.62,0.09c0.04,0.31-0.71,0.73-0.84,0.71c-0.13-0.02-0.15,0.15-0.15,0.15
	c4.16,1.35,4.58,4.98,4.65,5.67c0.07,0.69-0.18,0.49-0.18,0.49c-2.34-2.22-4.25-3.71-4.38-3.82c-0.13-0.11-0.18-0.02-0.18-0.02
	c1,4.05-1.27,6.13-1.73,6.52c-0.45,0.4-0.33,0.07-0.33,0.07c0.69-5.67,0.16-7.14,0.16-7.14c-1.98,2.13-2.76,7.21-3,8.6
	c-0.24,1.38-0.13,2.11,0.2,2.54c0.33,0.44,2.35,1.65,3.09,1.82s1.67-0.31,2.23-0.58c0.56-0.27,2.04-0.82,3.13-0.75
	c1.09,0.07,1.8,0.54,2.27,0.87c0.29,0.2,0.77,0.74,1.12,1.13c2.11-2.59,3.38-5.89,3.38-9.49c0-8.29-6.73-15.02-15.02-15.02
	c-8.3,0-15.02,6.73-15.02,15.02c0,3.93,1.51,7.5,3.98,10.18C7.54,28.75,7.53,28.75,7.53,28.74z"/>
</svg>
