<?xml version="1.0" encoding="utf-8"?>
<!-- Generator: Adobe Illustrator 23.0.1, SVG Export Plug-In . SVG Version: 6.00 Build 0)  -->
<svg version="1.1" id="Camada_1" xmlns="http://www.w3.org/2000/svg" xmlns:xlink="http://www.w3.org/1999/xlink" x="0px" y="0px"
	 viewBox="0 0 37.16 37.16" style="enable-background:new 0 0 37.16 37.16;" xml:space="preserve">
<style type="text/css">
	.st0{filter:url(#Adobe_OpacityMaskFilter);}
	.st1{mask:url(#SVGID_1_);}
	.st2{fill:#56646E;}
</style>
<defs>
	<filter id="Adobe_OpacityMaskFilter" filterUnits="userSpaceOnUse">
		<feColorMatrix  type="matrix" values="1 0 0 0 0  0 1 0 0 0  0 0 1 0 0  0 0 0 1 0"/>
	</filter>
</defs>
<mask maskUnits="userSpaceOnUse" id="SVGID_1_">
	<g class="st0">
		<rect x="-893.09" y="-722.99" width="375" height="812"/>
	</g>
</mask>
<g class="st1">
</g>
<path class="st2" d="M18.58,0C8.32,0,0,8.32,0,18.58c0,10.26,8.32,18.58,18.58,18.58c10.26,0,18.58-8.32,18.58-18.58
	C37.16,8.32,28.84,0,18.58,0z M18.58,35.71C9.07,35.71,1.37,28,1.37,18.5S9.07,1.29,18.58,1.29c9.51,0,17.21,7.71,17.21,17.21
	S28.08,35.71,18.58,35.71z"/>
<path class="st2" d="M27.52,29.39c1.17,0,2.11-0.94,2.11-2.11c0-1.16-0.95-2.11-2.11-2.11s-2.11,0.95-2.11,2.11
	C25.41,28.45,26.36,29.39,27.52,29.39z"/>
<path class="st2" d="M34.24,18.58c0-3.39-1.09-6.52-2.92-9.08c-0.07,0.19-0.16,0.37-0.31,0.52L30.06,11
	c-0.47,0.49-1.08,0.84-1.36,0.77c-0.27-0.06-0.92,0.25-1.43,0.69L23,16.07c-0.52,0.44-0.58,1.22-0.14,1.74l3.97,4.64
	c0.45,0.52,1.37,0.94,2.02,1.17c1.5,0.54,2.58,1.98,2.58,3.67c0,0.09-0.02,0.17-0.03,0.26C33.19,25.01,34.24,21.92,34.24,18.58z"/>
<path class="st2" d="M12.92,20.35c0.66,0.12,1.18-0.33,1.17-1.01l-0.01-0.38c-0.02-0.68,0.11-1.23,0.28-1.23
	c0.17,0,0.66,0.43,1.1,0.95l0.06,0.07c0.43,0.53,1.05,0.73,1.37,0.46c0.32-0.27,0.23-0.93-0.19-1.46l-1.28-1.59
	c-0.43-0.53-1.18-0.77-1.69-0.56c-0.51,0.21-1.47,0.58-2.15,0.47c-0.63-0.1-1.45-0.46-2.27-1.49c-0.43-0.53-0.99-1.49-1.25-2.12
	c-0.6-1.48-0.58-2.68-0.42-3.5C7.75,8.28,8.4,8.21,8.85,8.72l2.26,2.55c0.45,0.51,1.29,0.64,1.87,0.28L13,11.54
	c0.58-0.36,1.42-1.06,1.87-1.57l0.04-0.05c0.45-0.51,0.47-1.35,0.04-1.88l-2.17-2.63c-0.43-0.52-0.26-1.14,0.42-1.17
	c1.03-0.03,2.62,0.23,4.39,1.68c1.63,1.33,2.01,2.51,2.01,3.33c0,0.68-0.53,1.61-0.85,2.13c-0.31,0.51-0.24,1.33,0.21,1.85l1.28,1.5
	c0.45,0.52,1.23,0.58,1.75,0.14l4.32-3.66c0.52-0.44,0.94-1.01,0.94-1.27c0-0.26,0.47-0.77,1.04-1.13l1.15-0.74
	c0.17-0.11,0.36-0.17,0.55-0.2c-2.86-3.04-6.9-4.96-11.41-4.96c-8.65,0-15.67,7.01-15.67,15.66c0,2.66,0.67,5.17,1.84,7.37
	c0.13-0.17,0.28-0.34,0.44-0.47l5.57-4.57C11.29,20.47,12.25,20.22,12.92,20.35z"/>
<path class="st2" d="M23.62,27.29c0-0.15,0.01-0.28,0.02-0.42c0.02-0.23-0.28-0.85-0.71-1.38l-3.71-4.6
	c-0.43-0.53-1.03-0.75-1.35-0.48c-0.32,0.27-0.29,0.82,0.05,1.23c0.34,0.42,0.62,0.91,0.62,1.11c0,0.2-0.54,0.24-1.2,0.09
	l-0.06-0.01c-0.67-0.15-1.23,0.28-1.25,0.97l-0.01,0.15c-0.03,0.68-0.47,1.59-1,2.02l-5.58,4.65c-0.14,0.12-0.3,0.22-0.47,0.32
	c2.65,2.07,5.98,3.31,9.61,3.31c3.49,0,6.7-1.15,9.3-3.08c-0.12,0.01-0.23,0.04-0.35,0.04C25.37,31.2,23.62,29.45,23.62,27.29z"/>
</svg>
