<?xml version="1.0" encoding="utf-8"?>
<!-- Generator: Adobe Illustrator 23.0.1, SVG Export Plug-In . SVG Version: 6.00 Build 0)  -->
<svg version="1.1" id="Layer_1" xmlns="http://www.w3.org/2000/svg" xmlns:xlink="http://www.w3.org/1999/xlink" x="0px" y="0px"
	 viewBox="0 0 142.5 32.1" style="enable-background:new 0 0 142.5 32.1;" xml:space="preserve">
<style type="text/css">
	.st0{fill:#005192;}
	.st1{fill:#868789;}
</style>
<g>
	<path class="st0" d="M6.9,23.9c-0.1-0.7-0.4-1.5-2-1.5s-1.8,0.6-1.8,1.1c0,1.8,7.1,0.5,7.1,4.6c0,3.3-3.2,3.9-4.9,3.9
		c-2.6,0-4.6-0.8-5.2-2.6l2.6-1.2c0.2,0.9,0.8,1.6,2.7,1.6c1.5,0,1.9-0.8,1.9-1.2c0-1.9-7-0.5-7-4.7c0-1.6,1-3.8,4.6-3.8
		c2.2,0,4.8,0.5,5.1,3.7C9.8,23.9,6.9,23.9,6.9,23.9z"/>
	<path class="st0" d="M20.9,29.8c-0.8,1.4-2.5,2.3-4.4,2.3c-3.2,0-5.6-1.5-5.6-6.2c0-1.3,0.5-5.7,5.4-5.7c2.2,0,5.3,1.1,5.3,6.2v0.5
		h-7.7c0.1,0.8,0.3,2.8,2.6,2.8c0.8,0,1.6-0.4,1.9-1.1L20.9,29.8z M18.5,25c-0.2-1.8-1.3-2.4-2.3-2.4c-1.4,0-2.1,0.9-2.3,2.4H18.5z"
		/>
	<path class="st0" d="M28.6,20.3c2.2,0,3.9,1.3,3.9,3.8v7.8h-3v-7c0-0.8,0-2.2-1.9-2.2c-2.5,0-2.3-0.2-2.3,2.6v6.6h-2.8l0-11.6h2.7"
		/>
	<path class="st0" d="M56.1,31.9h-2.9v-1.6h0c-0.7,1.3-2,1.7-3.3,1.7c-3.3,0-4.8-3-4.8-6.1c0-3.9,2.2-5.8,4.7-5.8
		c1.9,0,2.8,1,3.3,1.8h0v-4.5h3L56.1,31.9L56.1,31.9z M50.4,29.6c1.9,0,2.6-1.6,2.6-3.2c0-1.8-0.5-3.6-2.5-3.6
		c-1.9,0-2.5,1.7-2.5,3.5C47.9,27.5,48.5,29.6,50.4,29.6"/>
	<path class="st0" d="M63.1,32.1c-3,0-5.8-1.9-5.8-5.9s2.7-5.9,5.8-5.9s5.8,1.9,5.8,5.9S66.1,32.1,63.1,32.1 M63.1,22.7
		c-2.3,0-2.7,2-2.7,3.4c0,1.5,0.4,3.4,2.7,3.4c2.3,0,2.7-2,2.7-3.4C65.8,24.7,65.4,22.7,63.1,22.7"/>
	<path class="st0" d="M21,17.4c4.7-7,12.7-11.6,21.7-11.6s17,4.6,21.7,11.6h1.4C59.1,6.9,47.4,0,34,0S8.9,6.9,2.2,17.4
		C2.2,17.4,21,17.4,21,17.4z"/>
	<path class="st0" d="M43.9,31.9h-2.8c0-1,0.1-1.3,0-1.5c-0.7,0.7-1.6,1.6-3.6,1.6c-1.7,0-3.4-1-3.4-3.3c0-2.2,1.4-3.3,3.3-3.6
		l2.7-0.4c0.5-0.1,1-0.3,1-0.9c0-1.3-1.2-1.3-1.9-1.3c-1.5,0-1.6,0.9-1.8,1.3h-2.9c0.4-3.1,2.7-3.6,5-3.6c1.6,0,4.5,0.5,4.5,3.3v6.1
		 M41,26.3c-0.3,0.2-0.8,0.4-2,0.6c-1.1,0.2-2,0.5-2,1.7c0,1,0.8,1.4,1.4,1.4c1.3,0,2.7-0.8,2.7-2.2L41,26.3L41,26.3z"/>
	<g>
		<path class="st1" d="M78,31.6h-3.1l-4-11.2h3.3l2.3,8.3h0l2.4-8.3h3.1L78,31.6z"/>
		<path class="st1" d="M95,20.4h2.8v1.9h0c0.6-1.1,1.3-2.2,3.1-2.2c0.2,0,0.4,0,0.6,0v3c-0.3,0-0.6,0-0.8,0c-2.3,0-2.7,1.4-2.7,2.7
			v5.8H95V20.4z"/>
		<path class="st1" d="M105.9,19.5H103v-2.7h2.9V19.5z M105.9,20.4v11.2H103V20.4H105.9z"/>
		<path class="st1" d="M112.1,31.6h-2.9v-9.1h-1.6v-2.1h1.6v-0.9c0-2.3,1.3-3.2,3.3-3.2c0.9,0,1.3,0,1.5,0v2.4h-0.8
			c-1,0-1,0.3-1,1.2v0.4h1.9v2.1h-1.9L112.1,31.6L112.1,31.6z"/>
		<path class="st1" d="M118.2,19.5h-2.9v-2.7h2.9V19.5z M118.2,20.4v11.2h-2.9V20.4H118.2z"/>
		<path class="st1" d="M130.7,27.5c-0.1,1.2-1,4.4-5.1,4.4c-4.2,0-5.2-3.2-5.2-5.6c0-3.6,1.6-6.2,5.4-6.2c1.8,0,4.7,0.8,4.9,4.3h-3
			c-0.1-0.7-0.6-1.8-1.8-1.8h-0.1c-1.9,0-2.3,1.8-2.3,3.2c0,1.2,0,3.6,2.3,3.6c1.5,0,2-1.4,2-2L130.7,27.5L130.7,27.5z"/>
		<path class="st1" d="M141.8,29.4c0,1.3,0.3,1.6,0.6,1.8v0.4h-3.2c-0.2-0.5-0.2-0.7-0.3-1.3c-0.7,0.7-1.6,1.6-3.6,1.6
			c-1.7,0-3.4-1-3.4-3.3c0-2.2,1.4-3.3,3.3-3.6l2.6-0.4c0.5-0.1,1-0.3,1-0.9c0-1.2-1.2-1.3-1.9-1.3c-1.5,0-1.7,0.9-1.8,1.6h-2.8
			c0.3-3.4,2.7-3.9,5-3.9c1.6,0,4.5,0.5,4.5,3.2L141.8,29.4L141.8,29.4z M139,26.2c-0.3,0.2-0.8,0.4-2,0.6c-1.1,0.2-2,0.5-2,1.7
			c0,1,0.8,1.3,1.4,1.3c1.3,0,2.6-0.8,2.6-2.2V26.2z"/>
		<path class="st1" d="M92.4,29.8c-0.8,1.4-2.5,2.3-4.4,2.3c-3.2,0-5.6-1.5-5.6-6.2c0-1.3,0.5-5.7,5.4-5.7c2.2,0,5.3,1.1,5.3,6.2
			v0.5h-7.7c0.1,0.8,0.3,2.8,2.6,2.8c0.8,0,1.6-0.4,1.8-1.1L92.4,29.8z M90,25c-0.2-1.8-1.3-2.4-2.3-2.4c-1.4,0-2.1,0.9-2.3,2.4H90z
			"/>
	</g>
</g>
</svg>
