<?xml version="1.0" encoding="utf-8"?>
<!-- Generator: Adobe Illustrator 23.0.1, SVG Export Plug-In . SVG Version: 6.00 Build 0)  -->
<svg version="1.1" id="Camada_1" xmlns="http://www.w3.org/2000/svg" xmlns:xlink="http://www.w3.org/1999/xlink" x="0px" y="0px"
	 viewBox="0 0 37.16 37.16" style="enable-background:new 0 0 37.16 37.16;" xml:space="preserve">
<style type="text/css">
	.st0{filter:url(#Adobe_OpacityMaskFilter);}
	.st1{mask:url(#SVGID_1_);}
	.st2{fill:#56646E;}
</style>
<defs>
	<filter id="Adobe_OpacityMaskFilter" filterUnits="userSpaceOnUse">
		<feColorMatrix  type="matrix" values="1 0 0 0 0  0 1 0 0 0  0 0 1 0 0  0 0 0 1 0"/>
	</filter>
</defs>
<mask maskUnits="userSpaceOnUse" id="SVGID_1_">
	<g class="st0">
		<rect x="-893.09" y="-722.99" width="375" height="812"/>
	</g>
</mask>
<g class="st1">
</g>
<path class="st2" d="M18.48,2.93c-8.72,0-15.78,7.07-15.78,15.78c0,8.38,6.53,15.21,14.77,15.73v-3.03
	c-1.79-0.03-3.65-0.59-4.73-1.36l0.74-2.07c1.11,0.74,2.72,1.33,4.45,1.33c2.19,0,3.68-1.27,3.68-3.03c0-1.7-1.2-2.75-3.49-3.68
	c-3.15-1.24-5.1-2.66-5.1-5.35c0-2.56,1.82-4.51,4.67-4.97V9.17h1.92v3c1.85,0.06,3.12,0.56,4.02,1.08l-0.77,2.04
	c-0.65-0.37-1.91-1.05-3.89-1.05c-2.38,0-3.27,1.42-3.27,2.66c0,1.61,1.14,2.41,3.83,3.52c3.18,1.3,4.79,2.91,4.79,5.66
	c0,2.44-1.7,4.73-4.88,5.25v3.13c8.28-0.49,14.85-7.33,14.85-15.74C34.26,9.99,27.19,2.93,18.48,2.93z"/>
<path class="st2" d="M18.58,0.08c-10.22,0-18.5,8.28-18.5,18.5c0,10.22,8.28,18.5,18.5,18.5c10.22,0,18.5-8.28,18.5-18.5
	C37.08,8.36,28.8,0.08,18.58,0.08z M18.54,35.91c-9.55,0-17.29-7.74-17.29-17.29c0-9.55,7.74-17.29,17.29-17.29
	s17.29,7.74,17.29,17.29C35.83,28.17,28.09,35.91,18.54,35.91z"/>
</svg>
