<?xml version="1.0" encoding="utf-8"?>
<!-- Generator: Adobe Illustrator 23.0.1, SVG Export Plug-In . SVG Version: 6.00 Build 0)  -->
<svg version="1.1" id="Camada_1" xmlns="http://www.w3.org/2000/svg" xmlns:xlink="http://www.w3.org/1999/xlink" x="0px" y="0px"
	 viewBox="0 0 37.16 37.16" style="enable-background:new 0 0 37.16 37.16;" xml:space="preserve">
<style type="text/css">
	.st0{filter:url(#Adobe_OpacityMaskFilter);}
	.st1{mask:url(#SVGID_1_);}
	.st2{fill:#56646E;}
</style>
<defs>
	<filter id="Adobe_OpacityMaskFilter" filterUnits="userSpaceOnUse">
		<feColorMatrix  type="matrix" values="1 0 0 0 0  0 1 0 0 0  0 0 1 0 0  0 0 0 1 0"/>
	</filter>
</defs>
<mask maskUnits="userSpaceOnUse" id="SVGID_1_">
	<g class="st0">
		<rect x="-893.09" y="-722.99" width="375" height="812"/>
	</g>
</mask>
<g class="st1">
</g>
<path class="st2" d="M18.58,2.96c-8.63,0-15.62,6.99-15.62,15.62c0,6.41,3.87,11.91,9.39,14.32l0.2-3.94c0-3.14-2.32-2.13-2.32-4.33
	c0-1.23,0.04-3.79,0.04-5.71c0-5.13,2.18-10.08,2.71-11.19c0.54-1.1,1.8-2.31,1.82-1.15c0,1.68,0.07,21.27,0.07,21.27h0l0.24,5.96
	c1.12,0.26,2.28,0.4,3.47,0.4c0.65,0,1.29-0.05,1.93-0.13l0.52-10.01c-1.27-0.28-2.36-1.09-3.04-2.11
	c-0.85-1.27,0.65-12.46,0.65-12.46h0.97v10.5h0.96V9.49h1.05v10.5h0.96V9.49h1.1v10.5h0.97V9.49h0.74c0,0,1.49,11.19,0.65,12.46
	c-0.68,1.01-1.75,1.82-3.01,2.1c-0.02,0.01-0.04,0.02-0.04,0.02l0.49,9.34c6.23-2.05,10.73-7.91,10.73-14.82
	C34.2,9.95,27.2,2.96,18.58,2.96z"/>
<path class="st2" d="M18.58,0.06C8.37,0.06,0.06,8.37,0.06,18.58c0,10.21,8.31,18.52,18.52,18.52c10.21,0,18.52-8.31,18.52-18.52
	C37.1,8.37,28.79,0.06,18.58,0.06z M18.58,35.72c-9.45,0-17.14-7.69-17.14-17.14c0-9.45,7.69-17.14,17.14-17.14
	c9.45,0,17.14,7.69,17.14,17.14C35.72,28.03,28.03,35.72,18.58,35.72z"/>
</svg>
