<?xml version="1.0" encoding="utf-8"?>
<!-- Generator: Adobe Illustrator 23.0.1, SVG Export Plug-In . SVG Version: 6.00 Build 0)  -->
<svg version="1.1" xmlns="http://www.w3.org/2000/svg" xmlns:xlink="http://www.w3.org/1999/xlink" x="0px" y="0px"
	 viewBox="0 0 18.3 21.4" style="enable-background:new 0 0 18.3 21.4;" xml:space="preserve">
<style type="text/css">
	.st0{fill:#C9C9C9;}
</style>
<g id="Camada_1">
	<path class="st0" d="M15.1,14.9c-0.9,0-1.7,0.4-2.2,0.9l-6.5-4.1c0.1-0.3,0.1-0.5,0.1-0.8c0-0.3-0.1-0.6-0.1-0.9L13,5.7
		c0.6,0.5,1.3,0.8,2.1,0.8c1.8,0,3.2-1.4,3.2-3.2c0-1.8-1.4-3.2-3.2-3.2c-1.8,0-3.2,1.4-3.2,3.2c0,0.3,0.1,0.7,0.2,1L5.3,8.5
		C4.8,8,4,7.7,3.2,7.7C1.4,7.7,0,9.1,0,10.9c0,1.8,1.4,3.2,3.2,3.2c0.8,0,1.6-0.3,2.2-0.9l6.5,4.1c-0.1,0.2-0.1,0.5-0.1,0.7
		c0,1.8,1.4,3.2,3.2,3.2c1.8,0,3.2-1.4,3.2-3.2C18.3,16.3,16.8,14.9,15.1,14.9z"/>
</g>
<g id="Camada_2">
</g>
</svg>
