<?xml version="1.0" encoding="utf-8"?>
<!-- Generator: Adobe Illustrator 23.0.1, SVG Export Plug-In . SVG Version: 6.00 Build 0)  -->
<svg version="1.1" id="Camada_1" xmlns="http://www.w3.org/2000/svg" xmlns:xlink="http://www.w3.org/1999/xlink" x="0px" y="0px"
	 viewBox="0 0 37.16 37.16" style="enable-background:new 0 0 37.16 37.16;" xml:space="preserve">
<style type="text/css">
	.st0{filter:url(#Adobe_OpacityMaskFilter);}
	.st1{mask:url(#SVGID_1_);}
	.st2{fill:#56646E;}
</style>
<defs>
	<filter id="Adobe_OpacityMaskFilter" filterUnits="userSpaceOnUse">
		<feColorMatrix  type="matrix" values="1 0 0 0 0  0 1 0 0 0  0 0 1 0 0  0 0 0 1 0"/>
	</filter>
</defs>
<mask maskUnits="userSpaceOnUse" id="SVGID_1_">
	<g class="st0">
		<rect x="-893.09" y="-722.99" width="375" height="812"/>
	</g>
</mask>
<g class="st1">
</g>
<path class="st2" d="M18.58,0.12C8.38,0.12,0.12,8.39,0.12,18.58s8.26,18.46,18.46,18.46s18.46-8.26,18.46-18.46
	S28.77,0.12,18.58,0.12z M18.58,35.6c-9.44,0-17.1-7.66-17.1-17.1c0-9.44,7.65-17.1,17.1-17.1c9.44,0,17.1,7.66,17.1,17.1
	C35.68,27.94,28.02,35.6,18.58,35.6z"/>
<path class="st2" d="M18.58,2.94c-8.63,0-15.64,7-15.64,15.63c0,8.63,6.99,15.63,15.62,15.63c-1.04-0.22-2.43-0.78-3.63-2.22
	c-1.97-2.37-3.62-6.96-3.92-10.69c-0.3-3.73-0.02-7.06,1.97-11.2c0,0,0.93-1.68,3.49-2.71c2.56-1.02,4.31,1.23,4.31,1.23l-0.77,5.52
	c0,0-0.06,0.52-0.59,0.57c-0.53,0.05-1.51,0.19-2.06,0.16c-0.55-0.03-1.78-0.05-2,0.9c-0.22,0.95-1.26,5.56,1.07,10.7
	c0,0,0.27,0.59,0.93,0.52c0.65-0.08,2.82-0.44,3.11-0.43c0.29,0.01,0.68,0.11,0.88,0.68c0.2,0.57,1.78,4.43,1.84,4.7
	s0.27,0.65-0.83,1.48c-0.27,0.21-0.52,0.36-0.74,0.49c7.18-1.41,12.6-7.74,12.6-15.34C34.21,9.95,27.21,2.94,18.58,2.94z"/>
</svg>
